<?xml version="1.0" encoding="UTF-8" standalone="no"?>
<!-- Created with Inkscape (http://www.inkscape.org/) -->

<svg
   xmlns:dc="http://purl.org/dc/elements/1.1/"
   xmlns:cc="http://creativecommons.org/ns#"
   xmlns:rdf="http://www.w3.org/1999/02/22-rdf-syntax-ns#"
   xmlns:svg="http://www.w3.org/2000/svg"
   xmlns="http://www.w3.org/2000/svg"
   xmlns:sodipodi="http://sodipodi.sourceforge.net/DTD/sodipodi-0.dtd"
   xmlns:inkscape="http://www.inkscape.org/namespaces/inkscape"
   width="65"
   height="65"
   viewBox="0 0 65 65"
   id="svg2"
   version="1.1"
   inkscape:version="0.91 r"
   sodipodi:docname="logo.svg">
  <defs
     id="defs4" />
  <sodipodi:namedview
     id="base"
     pagecolor="#ffffff"
     bordercolor="#666666"
     borderopacity="1.0"
     inkscape:pageopacity="0.0"
     inkscape:pageshadow="2"
     inkscape:zoom="3.959798"
     inkscape:cx="4.98557"
     inkscape:cy="62.886003"
     inkscape:document-units="px"
     inkscape:current-layer="layer1"
     showgrid="false"
     units="px"
     showborder="true"
     height="8.5in"
     inkscape:window-width="1920"
     inkscape:window-height="1028"
     inkscape:window-x="0"
     inkscape:window-y="0"
     inkscape:window-maximized="1" />
  <metadata
     id="metadata7">
    <rdf:RDF>
      <cc:Work
         rdf:about="">
        <dc:format>image/svg+xml</dc:format>
        <dc:type
           rdf:resource="http://purl.org/dc/dcmitype/StillImage" />
        <dc:title></dc:title>
      </cc:Work>
    </rdf:RDF>
  </metadata>
  <g
     inkscape:label="Layer 1"
     inkscape:groupmode="layer"
     id="layer1"
     transform="translate(0,-987.3622)">
    <rect
       style="opacity:0.97000002;fill:#cccccc;fill-opacity:1;fill-rule:evenodd;stroke:none;stroke-linejoin:miter;stroke-opacity:1"
       id="rect4244"
       width="67.932762"
       height="65.912453"
       x="-0.25253814"
       y="987.20734" />
    <path
       style="opacity:0.97000002;fill:#000000;fill-opacity:1;fill-rule:evenodd;stroke:#cccccc;stroke-width:0.10412272;stroke-linejoin:miter;stroke-opacity:1"
       id="path4150"
       d="m 8.2076764,998.05422 c -0.03051,1.02919 -0.0022,2.05858 -0.02085,3.08788 -0.07512,1.8805 -0.01573,3.7573 0.110288,5.6338 0.07555,1.3933 0.232925,2.7797 0.365319,4.1685 0.161988,1.8732 0.40224,3.738 0.576486,5.61 0.08807,1.0921 0.268447,2.172 0.355159,3.2645 0.04808,1.6082 0.05553,3.2175 0.06899,4.8264 0.028,0.9129 -0.0263,1.8308 0.102339,2.7372 0.126194,0.9689 0.3543116,1.92 0.5213256,2.882 0.188416,1.177 0.240162,2.3694 0.273183,3.5591 0.01888,0.9715 0.02425,1.9431 0.02186,2.9148 0.0019,0.8116 0.0031,1.6233 -5.2e-4,2.4349 -0.0032,0.6754 -0.01006,1.3507 -0.01042,2.0261 0,0 -3.8954356,1.9848 -3.8954356,1.9848 l 0,0 c -3.13e-4,-0.6721 -0.0071,-1.344 -0.0097,-2.0161 -0.0026,-0.8127 6.25e-4,-1.6255 0.0059,-2.4382 8.33e-4,-0.9709 0.01214,-1.9418 -0.0019,-2.9127 -0.02232,-1.171 -0.05623,-2.3452 -0.238005,-3.5045 -0.165867,-0.9621 -0.414853,-1.9066 -0.563847,-2.8714 -0.145271,-0.9384 -0.06655,-1.8789 -0.0667,-2.8266 0.0023,-1.5932 0.0102,-3.1882 -0.09122,-4.779 -0.08178,-1.0973 -0.26432,-2.183 -0.31745,-3.2821 -0.129224,-1.8737 -0.346571,-3.7378 -0.563766,-5.603 -0.171841,-1.3923 -0.335806,-2.7871 -0.370134,-4.1907 -0.09305,-1.8784 -0.158047,-3.756 -0.159153,-5.6371 -0.01885,-1.0222 0.0099,-2.0445 -0.02085,-3.0666 0,0 3.929057,-2.00198 3.929057,-2.00198 z"
       inkscape:connector-curvature="0" />
    <path
       style="opacity:0.97000002;fill:#000000;fill-opacity:1;fill-rule:evenodd;stroke:#cccccc;stroke-width:0.10412272;stroke-linejoin:miter;stroke-opacity:1"
       id="path4152"
       d="m 10.693902,1018.8568 c 1.000702,0.019 2.001836,0.015 3.002662,0.01 0.62276,-0 1.245537,-0 1.868281,-0.011 0.474015,-0.017 0.951598,0.048 1.416391,-0.055 1.582022,-0.9147 -1.64134,0.9504 -3.177865,1.7824 -0.12563,0.068 0.233871,-0.1648 0.342701,-0.2573 0.404379,-0.344 0.729841,-0.754 1.052199,-1.172 0.639723,-0.888 1.218509,-1.8147 1.713991,-2.7905 0.337004,-0.7664 0.593426,-1.5652 0.859541,-2.3581 0.255347,-0.7387 0.530876,-1.4704 0.812377,-2.1995 0.302172,-0.7594 0.471117,-1.5643 0.64921,-2.3599 0.113736,-0.8371 0.34252,-1.6446 0.594726,-2.4488 0.333658,-0.918 0.547465,-1.8688 0.749455,-2.8218 0.138696,-0.8154 0.373626,-1.5991 0.65616,-2.3746 0.118351,-0.3534 0.273892,-0.6914 0.434373,-1.027 0,0 4.013956,-1.82032 4.013956,-1.82032 l 0,0 c -0.164314,0.32873 -0.361061,0.64178 -0.463936,0.9978 -0.303971,0.75152 -0.551753,1.51552 -0.682005,2.31742 -0.233157,0.9578 -0.407081,1.9311 -0.744089,2.8631 -0.263502,0.7852 -0.495382,1.5774 -0.597582,2.4021 -0.17415,0.8165 -0.35988,1.6348 -0.618599,2.4283 -0.304596,0.7147 -0.555482,1.4543 -0.816147,2.1855 -0.317585,0.7879 -0.53495,1.6169 -0.846932,2.4089 -0.503914,0.9921 -1.062462,1.9515 -1.706286,2.86 -1.315055,1.9715 -3.396947,3.5018 -5.764735,4.0251 -0.485898,0.021 -0.972207,0.017 -1.458487,0.016 -0.612353,-0.01 -1.224738,-0.01 -1.837107,-0.011 -1.0081096,-0.01 -2.0165076,-0.01 -3.0244996,0.01 0,0 3.5722466,-2.5954 3.5722466,-2.5954 z"
       inkscape:connector-curvature="0" />
    <path
       style="opacity:0.97000002;fill:#000000;fill-opacity:1;fill-rule:evenodd;stroke:#cccccc;stroke-width:0.10412272;stroke-linejoin:miter;stroke-opacity:1"
       id="path4160"
       d="m 9.2396514,1019.751 c 1.1471306,0.026 2.2946236,0.015 3.4418976,0.01 0.652069,-0.01 1.304194,-0.01 1.956306,-0.01 0.500292,-0.055 0.752098,0.092 0.964838,0.5382 0.315113,0.6709 0.532369,1.3859 0.710207,2.1042 0.126025,0.5577 0.203114,1.1238 0.228848,1.6946 -0.0465,0.4896 0.185652,0.8517 0.419887,1.2615 0.322031,0.6418 0.739313,1.2283 1.055586,1.8728 0.19144,0.4031 0.260425,0.8425 0.439945,1.2509 0.235341,0.6374 0.640369,1.1919 0.93819,1.8006 0.220623,0.5346 0.396186,1.0856 0.589049,1.6302 0.138501,0.5026 0.393861,0.9548 0.609812,1.425 0.176676,0.4505 0.452026,0.8485 0.690611,1.2664 0.225928,0.4586 0.498326,0.8915 0.694143,1.3645 0.106485,0.4909 0.450686,0.8595 0.690481,1.2869 0.281647,0.4458 0.501654,0.9408 0.829297,1.3548 0.296528,0.5254 0.835819,0.7774 1.274885,1.1576 0.334998,0.393 0.681553,0.6449 1.177371,0.7731 0.567899,0.2113 1.170212,0.3498 1.764858,0.4733 0.606544,0.1177 1.223355,0.1508 1.839527,0.1646 0.487955,0.01 0.975958,10e-4 1.463939,8e-4 0.412546,0 0.190846,7e-4 0.665097,0.01 0,0 -3.558482,2.5863 -3.558482,2.5863 l 0,0 c -0.488896,0.01 -0.260931,0 -0.683888,0.01 -0.490448,0 -0.981051,0 -1.471206,-0.018 -0.628892,-0.034 -1.256196,-0.098 -1.871414,-0.2387 -0.609614,-0.1421 -1.224394,-0.2774 -1.811905,-0.4964 -0.504202,-0.2013 -0.88646,-0.5277 -1.257627,-0.9196 -0.474298,-0.3826 -1.004559,-0.699 -1.328028,-1.2367 -0.332762,-0.4384 -0.569451,-0.9443 -0.859549,-1.412 -0.248732,-0.4428 -0.626848,-0.8201 -0.726832,-1.3335 -0.175569,-0.4614 -0.443561,-0.8755 -0.667323,-1.3139 -0.235189,-0.4326 -0.527244,-0.8349 -0.698079,-1.3007 -0.223323,-0.4801 -0.493763,-0.9385 -0.627684,-1.4562 -0.199504,-0.5277 -0.358603,-1.0702 -0.558253,-1.5981 -0.291509,-0.6153 -0.702964,-1.1667 -0.959324,-1.7975 -0.193671,-0.4052 -0.277631,-0.832 -0.427442,-1.2518 -0.294325,-0.6414 -0.704495,-1.2161 -1.029546,-1.8415 -0.275198,-0.4493 -0.592976,-0.8979 -0.542552,-1.4464 -0.0123,-0.547 -0.05096,-1.0934 -0.162793,-1.6303 -0.15581,-0.689 -0.359575,-1.376 -0.69337,-2.0016 -0.131256,-0.257 -0.423075,-0.093 -0.684155,-0.1319 -0.642946,-0 -1.2859056,-7e-4 -1.9288056,-0.01 -1.154655,-0.01 -2.309505,-0.018 -3.464026,0.01 0,0 3.567509,-2.592 3.567509,-2.592 z"
       inkscape:connector-curvature="0" />
    <path
       style="opacity:0.97000002;fill:#000000;fill-opacity:1;fill-rule:evenodd;stroke:#cccccc;stroke-width:0.10412272;stroke-linejoin:miter;stroke-opacity:1"
       id="path4162"
       d="m 42.374179,999.25608 c -0.290003,1.07672 -0.403465,2.19002 -0.486292,3.29882 -0.04493,0.6066 -0.05453,1.2147 -0.065,1.8226 -0.05003,1.4362 -0.04128,2.8736 -0.02721,4.3103 0.0077,0.7887 0.02602,1.5773 0.03384,2.366 -0.0048,0.7107 -0.0097,1.4213 -0.01341,2.132 0.0035,0.8522 0.0019,1.7043 -0.0026,2.5564 -0.01053,1.0843 -0.0052,2.1686 -0.0043,3.2529 0.0018,0.8282 0.01377,1.6564 0.01139,2.4847 0.0017,0.8986 -0.0096,1.7973 -0.01253,2.696 -0.0044,0.9472 0.0057,1.8944 0.01202,2.8416 0.0048,0.6533 0.0032,1.3067 0.0059,1.9601 7.29e-4,0.5207 4.16e-4,1.0414 0.0069,1.562 -0.0025,0.5341 -0.0063,1.0682 -0.0071,1.6023 -0.02846,0.6378 0.0149,1.2659 0.117554,1.8949 0.09006,0.612 0.142526,1.2289 0.169358,1.8466 0.0636,0.4112 0.175708,0.8125 0.249234,1.2222 0.05959,0.3931 0.06382,0.7912 0.06563,1.1879 -0.0273,0.3536 0.01011,0.6749 0.108589,1.011 0.07205,0.1893 0.07966,0.3958 0.153304,0.5835 0,0 -3.869387,2.1761 -3.869387,2.1761 l 0,0 c -0.09392,-0.206 -0.11785,-0.4162 -0.174964,-0.6348 -0.111124,-0.3768 -0.21599,-0.722 -0.159641,-1.1236 -0.0038,-0.3753 -0.0029,-0.7518 -0.04138,-1.1256 -0.0591,-0.4316 -0.167409,-0.8517 -0.261424,-1.2766 -0.01661,-0.6028 -0.04542,-1.2063 -0.136531,-1.8032 -0.100029,-0.6503 -0.197586,-1.2944 -0.151887,-1.9552 -8.32e-4,-0.5316 -0.0046,-1.0633 -0.0071,-1.5949 0.0064,-0.523 0.0061,-1.0461 0.0069,-1.5691 0.0026,-0.6554 10e-4,-1.3107 0.0059,-1.9661 0.0063,-0.9513 0.01643,-1.9026 0.01202,-2.8538 -0.0029,-0.8945 -0.01431,-1.7889 -0.01253,-2.6833 -0.0024,-0.8321 0.0096,-1.6642 0.01139,-2.4963 9.37e-4,-1.0828 0.0062,-2.1657 -0.0043,-3.2484 -0.0045,-0.8513 -0.0061,-1.7026 -0.0026,-2.5538 -0.0037,-0.7061 -0.0085,-1.4122 -0.01349,-2.1182 0.0075,-0.7997 0.02476,-1.5992 0.03129,-2.3989 0.01162,-1.4276 0.01739,-2.8558 -0.03252,-4.2828 -0.0045,-0.6237 0.01565,-1.2467 0.07678,-1.8678 0.106737,-1.1203 0.217313,-2.2419 0.427461,-3.3485 0,0 3.980899,-1.90702 3.980899,-1.90702 z"
       inkscape:connector-curvature="0" />
    <path
       style="opacity:0.97000002;fill:#000000;fill-opacity:1;fill-rule:evenodd;stroke:#cccccc;stroke-width:0.10412272;stroke-linejoin:miter;stroke-opacity:1"
       id="path4164"
       d="m 30.874509,1003.2181 c 0.124706,-0.063 0.251122,-0.1232 0.374118,-0.1896 1.476139,-0.7979 -0.647952,0.3179 0.865212,-0.4726 0.131496,-0.069 0.523149,-0.2799 0.394618,-0.2058 -3.836849,2.2117 -4.354953,2.5528 -2.89961,1.6232 0.79174,-0.5152 1.464024,-1.1853 2.128919,-1.8501 0.65359,-0.7131 1.391176,-1.3288 2.188175,-1.874 11.887222,-6.80762 0.752496,-0.42892 1.034861,-0.59735 1.394648,-0.83194 2.822076,-1.60795 4.219547,-2.43513 1.098408,-0.65016 -2.212319,1.27381 -3.32229,1.90403 -0.125021,0.071 0.242907,-0.154 0.367232,-0.2262 1.37523,-0.79864 2.754198,-1.59082 4.131298,-2.38623 0.736101,-0.32081 1.476972,-0.63153 2.219983,-0.93788 0.908403,-0.35722 1.810662,-0.69919 2.768358,-0.89832 0.987759,-0.16602 1.99193,-0.19197 2.991368,-0.2079 0.566652,-0.008 1.13346,-0.0131 1.70016,-0.007 0.521737,9.4e-4 1.043411,0.007 1.565157,0.005 0.453935,9.4e-4 0.907855,-0.004 1.361786,-0.004 0.567129,0.002 1.13423,0.007 1.701364,0.009 0.620274,-3.1e-4 1.240574,-0.002 1.860832,-0.006 0.43425,-0.0546 0.776611,0.13231 1.129564,0.3591 0.409275,0.31303 0.676932,0.76397 0.949626,1.19183 0.380977,0.44247 0.561222,0.95355 0.715836,1.50514 0.231247,0.4999 0.431046,1.01813 0.691918,1.50327 0.266783,0.42898 0.414086,0.90643 0.571585,1.38184 0.121496,0.382 0.190963,0.7493 0.453485,1.0593 0.323189,0.3621 0.526331,0.7762 0.645503,1.243 0.02623,0.3922 0.15248,0.7593 0.244504,1.1377 0.09602,0.3902 0.118007,0.7929 0.129514,1.193 0.0068,0.5249 0.0025,1.05 10e-4,1.5749 0.0053,0.4383 0.0022,0.8765 0.0056,1.3148 -0.0029,0.3751 0.0016,0.7502 8.33e-4,1.1253 -0.0052,0.3911 -1.04e-4,0.7821 -5.21e-4,1.1731 0.01097,0.3489 0.03403,0.7048 -0.242981,0.9562 -1.097888,1.2269 -3.064637,1.8559 -4.249061,2.5851 -1.163138,0.7161 2.362377,-1.372 3.55162,-2.0439 0.101231,-0.057 -0.190916,0.1327 -0.286373,0.1991 -0.574446,0.4502 -1.11606,0.9328 -1.713969,1.3523 -0.514166,0.4638 -1.016397,0.9379 -1.48299,1.4495 -1.384279,1.2996 -3.05395,2.7055 -4.973703,2.846 -0.640661,0.1274 -1.174724,0.5187 -1.787509,0.7291 -1.415866,0.3644 -3.847034,2.0377 3.079019,-1.8573 0.065,-0.037 -0.125617,0.08 -0.187674,0.1218 -0.218259,0.1454 -0.138474,0.087 -0.339661,0.2773 -1.349608,1.5085 -2.73571,1.8924 -4.813057,3.0664 -0.453543,0.2697 -0.973251,0.3933 -1.461651,0.5938 -0.55313,0.1821 -1.06963,0.4691 -1.638054,0.6058 -0.438056,0.026 -0.770841,0.2975 -1.178244,0.4371 -0.438245,0.1461 -0.899459,0.1589 -1.268311,0.4596 -0.343564,0.21 -0.737998,0.3069 -1.135854,0.3399 -0.387777,-0 -0.677075,0.2705 -0.999197,0.4539 -0.426443,0.069 -0.825247,0.2148 -1.242713,0.3236 -0.435036,0.056 -0.788781,0.1747 -1.189087,0.3502 -0.27849,0.2733 -0.651848,0.349 -0.993627,0.4963 -0.157536,0.068 -0.30226,0.163 -0.458866,0.2331 -0.20817,0.1121 -0.46369,0.1066 -0.679746,0.1843 -0.162268,0.058 -0.290771,0.1848 -0.455588,0.2471 -0.383961,0.049 -0.750573,0.1444 -1.128938,0.2129 -0.256295,0.09 -0.54622,0.053 -0.803855,0.1303 -0.129311,0.039 -0.242777,0.1182 -0.367329,0.1702 1.216463,-0.6879 2.432925,-1.3758 3.649388,-2.0637 0,0 -4.132558,1.599 -4.132558,1.599 l 0,0 c 3.29051,-1.8736 2.879009,-2.0993 5.17201,-2.5074 0.364611,-0.091 0.75061,-0.1148 1.086422,-0.298 0.355458,-0.1882 0.767234,-0.2262 1.120543,-0.4258 0.490444,-0.2352 0.98731,-0.4545 1.468336,-0.7079 0.400795,-0.14 0.811269,-0.2031 1.2185,-0.3215 0.399199,-0.1272 0.829254,-0.1758 1.186293,-0.4076 0.347202,-0.1901 0.693235,-0.31 1.092642,-0.3347 0.370048,-0.099 0.714286,-0.2514 1.040405,-0.4537 0.429923,-0.1474 0.876368,-0.2308 1.295472,-0.4106 0.394639,-0.1793 0.782451,-0.3264 1.207757,-0.4141 0.534596,-0.201 1.062676,-0.4179 1.596667,-0.6204 0.49798,-0.1927 0.99928,-0.3732 1.475202,-0.6162 -6.239041,3.6178 -4.011583,2.6213 -2.741969,1.3886 1.217056,-1.5222 3.165926,-2.3491 4.998594,-2.9775 0.600275,-0.265 1.183182,-0.5817 1.842881,-0.6762 0.127372,-0.046 0.491809,-0.2233 0.375172,-0.1547 -6.456969,3.7933 -4.214795,2.6778 -3.011521,1.6671 0.524832,-0.4564 0.954779,-1.0265 1.484311,-1.4819 0.431272,-0.4431 0.05396,-0.1099 0.529606,-0.4033 0.434613,-0.268 0.764116,-0.673 1.172503,-0.9755 1.582609,-1.2693 -1.259709,0.989 4.278424,-2.5681 1.181942,-0.7592 -2.42967,1.4106 -3.64358,2.1175 -0.03404,0.02 0.06929,-0.038 0.103941,-0.056 0.1624,-0.092 0.07975,-0.047 0.248026,-0.1377 0.238212,-0.3279 0.446755,-0.1006 0.384847,-0.6669 -4.16e-4,-0.3909 0.0046,-0.7817 -6.25e-4,-1.1726 -7.29e-4,-0.3755 0.0037,-0.7511 0.0011,-1.1266 0.0038,-0.4408 0.0017,-0.8815 0.0085,-1.3223 -2.08e-4,-0.5195 5.21e-4,-1.039 -0.0074,-1.5585 -0.008,-0.3721 -0.01315,-0.7473 -0.08903,-1.1131 -0.08323,-0.3817 -0.245686,-0.7428 -0.245691,-1.1395 -0.07837,-0.4106 -0.252032,-0.7564 -0.538053,-1.0659 -0.294787,-0.3637 -0.427609,-0.7507 -0.531798,-1.203 -0.149872,-0.4509 -0.286604,-0.9066 -0.530543,-1.3184 -0.273162,-0.5132 -0.49011,-1.0552 -0.734759,-1.5827 -0.15613,-0.50507 -0.286251,-0.9832 -0.650164,-1.39086 -0.250577,-0.3645 -0.471256,-0.77729 -0.861437,-1.01244 -0.316246,-0.16985 -0.633116,-0.18692 -0.987989,-0.16871 -0.614379,-0.005 -1.228801,-0.006 -1.843196,-0.006 -0.575208,0.001 -1.150381,0.007 -1.725583,0.009 -0.450118,-3.1e-4 -0.900225,-0.005 -1.350347,-0.005 -0.524136,-0.003 -1.048258,0.003 -1.572378,-0.002 -0.555195,-4.1e-4 -1.11039,-0.0142 -1.665603,-0.004 -0.980599,0.0241 -1.967266,0.0549 -2.92766,0.27501 -0.938139,0.24472 -1.835647,0.60133 -2.734416,0.96237 -0.736702,0.30648 -1.480718,0.6057 -2.18521,0.98094 1.12624,-0.6522 2.251851,-1.30548 3.378716,-1.9566 0.126905,-0.0733 -0.252252,0.14932 -0.378822,0.22322 -1.386867,0.8098 -2.780846,1.60751 -4.161486,2.42788 -1.077653,0.64029 4.336322,-2.51758 3.252489,-1.88776 -5.795074,3.36755 -5.261933,3.06135 -1.044232,0.58625 -0.804324,0.50377 -1.553839,1.07105 -2.192193,1.7789 -0.675872,0.6748 -1.342627,1.3679 -2.107385,1.9437 -2.026297,1.2951 -4.103624,2.5443 -6.289654,3.5524 0,0 3.474345,-2.7199 3.474345,-2.7199 z"
       inkscape:connector-curvature="0" />
    <path
       style="opacity:0.97000002;fill:#000000;fill-opacity:1;fill-rule:evenodd;stroke:#cccccc;stroke-width:0.10412272;stroke-linejoin:miter;stroke-opacity:1"
       id="path4174"
       d="m -11.815956,1045.9338 c 2.1316364,0.031 4.2645524,0.091 6.3933964,-0.035 2.556074,-0.2255 5.11652299,-0.3716 7.680703,-0.4596 2.240862,-0.031 4.472989,-0.2834 6.70028,-0.5162 2.2846686,-0.2573 4.5807666,-0.3591 6.8779696,-0.4058 2.41429,-0.1196 4.828692,-0.2301 7.245338,-0.2868 2.482103,-0.033 4.964492,-0.04 7.446783,-0.046 2.025472,-8e-4 4.050936,-0.01 6.07639,-0.015 1.131943,-0.021 2.265895,0.018 3.397348,-0.028 -4.336867,3.1058 -2.538449,2.5695 -5.934458,2.5876 -0.751984,-0.01 -1.377646,0.2722 -2.027209,0.5965 -1.436956,0.7332 -0.39569,0.2063 3.366759,-1.9419 0.06479,-0.037 -0.130994,0.072 -0.191533,0.1158 -0.176454,0.127 -0.337382,0.2832 -0.484436,0.4422 -0.23169,0.296 -0.298558,0.6415 -0.330258,1.0058 0.629718,0.9049 2.251162,1.1293 3.249157,1.3348 2.66748,0.3996 5.378322,0.3684 8.068929,0.4066 5.800034,0.068 11.528039,-1.0233 17.238359,-1.9006 5.887312,-0.9827 11.802665,-1.7655 17.748621,-2.2826 2.470543,-0.1772 1.295207,-0.1 3.525755,-0.2361 0,0 -3.389677,2.4898 -3.389677,2.4898 l 0,0 c -2.162674,0.093 -1.020864,0.036 -3.425136,0.1771 -5.893241,0.4474 -11.75187,1.21 -17.580046,2.1927 -5.793303,0.8977 -11.595928,2.0148 -17.480809,1.9991 -2.748868,-0 -5.526635,0.063 -8.247461,-0.3861 -1.277052,-0.2871 -2.962608,-0.5667 -3.662869,-1.8059 0.0094,-0.4196 0.02887,-0.8444 0.229992,-1.224 0.126129,-0.2486 0.242552,-0.365 0.438803,-0.5538 1.222989,-1.1765 2.842966,-1.8572 4.378729,-2.5862 0.668523,-0.3096 1.382958,-0.4205 2.119032,-0.4186 0.66797,0 1.335889,0 2.003756,-0.011 1.715343,-0.036 0.591845,-0.2393 -3.192585,2.5983 -1.104801,-0.051 -2.21299,-0 -3.318382,-0.03 -2.009784,-0.01 -4.019584,-0.019 -6.029398,-0.018 -2.481541,-10e-5 -4.963392,-0 -7.444398,0.056 -2.414847,0.06 -4.827633,0.1663 -7.240338,0.2833 -2.2925,0.066 -4.5842726,0.1754 -6.8640866,0.4372 -2.230845,0.228 -4.464426,0.4764 -6.709589,0.4863 -2.557019,0.085 -5.108719,0.2507 -7.659008,0.4541 -2.1763524,0.1046 -4.3544324,0.058 -6.5324534,0.1077 0,0 3.55803,-2.5851 3.55803,-2.5851 z"
       inkscape:connector-curvature="0" />
  </g>
</svg>
